<?xml version="1.0" standalone="no"?>
<!DOCTYPE svg PUBLIC "-//W3C//DTD SVG 1.1//EN" "http://www.w3.org/Graphics/SVG/1.1/DTD/svg11.dtd" >
<svg>
<metadata>
Created by FontForge 20090622 at Fri Apr 15 10:48:15 2016
 By ffonts
(C) 2009-2015 The Grandoplex Project. Made in Al Khobar, Saudi Arabia.

This font by Jayvee Enaguas (GrandChaos9000) &#60;grandchaos9000(at)openmailbox(dot)org&#62; is licensed under the CC0 1.0 (Public Domain) &#60;https://creativecommons.org/publicdomain/zero/1.0&#62;.
</metadata>
<defs>
<font id="SpanishTeletext" horiz-adv-x="1200" >
  <font-face 
    font-family="Spanish Teletext"
    font-weight="400"
    font-stretch="normal"
    units-per-em="1400"
    panose-1="2 0 5 9 0 0 0 0 0 0"
    ascent="1200"
    descent="-200"
    x-height="700"
    cap-height="1000"
    bbox="0 -200 1200 1200"
    underline-thickness="100"
    underline-position="-150"
    unicode-range="U+0020-U+20AC"
  />
<missing-glyph 
d="M300 1000h600v-1000h-600v1000zM400 900v-800h400v800h-400z" />
    <glyph glyph-name=".notdef" 
d="M300 1000h600v-1000h-600v1000zM400 900v-800h400v800h-400z" />
    <glyph glyph-name=".null" horiz-adv-x="0" 
 />
    <glyph glyph-name="nonmarkingreturn" 
 />
    <glyph glyph-name="space" unicode=" " 
 />
    <glyph glyph-name="exclam" unicode="!" 
d="M400 1000h300v-600h-300v600zM400 200h300v-200h-300v200z" />
    <glyph glyph-name="quotedbl" unicode="&#x22;" 
d="M700 1000h300v-300h-100v-100h-200v100h100v200h-100v100zM200 1000h300v-300h-100v-100h-200v100h100v200h-100v100z" />
    <glyph glyph-name="numbersign" unicode="#" 
d="M300 1100h200v-200h200v200h200v-200h200v-200h-200v-400h200v-200h-200v-200h-200v200h-200v-200h-200v200h-200v200h200v400h-200v200h200v200zM500 700v-400h200v400h-200z" />
    <glyph glyph-name="dollar" unicode="$" 
d="M500 1200h200v-200h300v-200h-300v-200h300v-100h100v-400h-100v-100h-300v-200h-200v200h-300v200h300v200h-300v100h-100v400h100v100h300v200zM500 800h-200v-200h200v200zM700 200h200v200h-200v-200z" />
    <glyph glyph-name="percent" unicode="%" 
d="M900 1000h200v-200h-100v-100h-100v-100h-100v-100h-100v-100h-100v-100h-100v-100h-100v-100h-100v-100h-200v200h100v100h100v100h100v100h100v100h100v100h100v100h100v100h100v100zM100 1000h300v-100h100v-200h-100v-100h-300v100h-100v200h100v100zM200 900v-200
h100v200h-100zM800 400h300v-100h100v-200h-100v-100h-300v100h-100v200h100v100zM900 300v-200h100v200h-100z" />
    <glyph glyph-name="ampersand" unicode="&#x26;" 
d="M300 1000h400v-100h100v-200h-100v-200h100v-100h100v100h100v100h200v-100h-100v-100h-100v-200h200v-200h-200v100h-200v-100h-600v100h-100v300h100v100h100v200h-100v200h100v100zM400 900v-200h200v200h-200zM400 500v-100h-100v-200h400v200h-100v100h-200z" />
    <glyph glyph-name="quotesingle" unicode="'" 
d="M500 1000h300v-300h-100v-100h-200v100h100v200h-100v100z" />
    <glyph glyph-name="parenleft" unicode="(" 
d="M500 1000h300v-200h-200v-100h-100v-400h100v-100h200v-200h-300v100h-100v200h-100v400h100v200h100v100z" />
    <glyph glyph-name="parenright" unicode=")" 
d="M400 1000h300v-100h100v-200h100v-400h-100v-200h-100v-100h-300v200h200v100h100v400h-100v100h-200v200z" />
    <glyph glyph-name="asterisk" unicode="*" 
d="M500 1000h200v-300h100v100h100v100h200v-100h-100v-100h-100v-100h-100v-200h100v-100h100v-100h100v-100h-200v100h-100v100h-100v-300h-200v300h-100v-100h-100v-100h-200v100h100v100h100v100h100v200h-100v100h-100v100h-100v100h200v-100h100v-100h100v300z" />
    <glyph glyph-name="plus" unicode="+" 
d="M500 900h200v-300h300v-200h-300v-300h-200v300h-300v200h300v300z" />
    <glyph glyph-name="comma" unicode="," 
d="M400 400h400v-300h-100v100h-300v200zM500 100h200v-100h-100v-100h-200v100h100v100z" />
    <glyph glyph-name="hyphen" unicode="-" 
d="M200 600h800v-200h-800v200z" />
    <glyph glyph-name="period" unicode="." 
d="M500 300h200v-300h-200v300z" />
    <glyph glyph-name="slash" unicode="/" 
d="M900 1000h200v-200h-100v-100h-100v-100h-100v-100h-100v-100h-100v-100h-100v-100h-100v-100h-100v-100h-200v200h100v100h100v100h100v100h100v100h100v100h100v100h100v100h100v100z" />
    <glyph glyph-name="zero" unicode="0" 
d="M300 1000h700v-100h100v-800h-100v-100h-700v100h-100v800h100v100zM500 900v-800h300v800h-300z" />
    <glyph glyph-name="one" unicode="1" 
d="M500 1000h300v-1000h-300v600h-200v200h100v100h100v100z" />
    <glyph glyph-name="two" unicode="2" 
d="M300 1000h700v-100h100v-300h-100v-100h-100v-100h-100v-100h-100v-100h400v-200h-900v100h100v100h100v100h100v100h100v100h100v100h100v200h-400v-100h-200v200h100v100z" />
    <glyph glyph-name="three" unicode="3" 
d="M200 1000h900v-300h-100v-100h-100v-100h200v-400h-100v-100h-800v200h700v200h-400v100h100v100h100v100h100v100h-600v200z" />
    <glyph glyph-name="four" unicode="4" 
d="M800 1000h300v-100h-100v-100h-100v-100h-100v-100h-100v-100h-100v-100h-100v-100h300v200h300v-500h-300v100h-600v300h100v100h100v100h100v100h100v100h100v100h100v100z" />
    <glyph glyph-name="five" unicode="5" 
d="M200 1000h900v-200h-700v-200h600v-100h100v-400h-100v-100h-700v100h-100v200h200v-100h500v200h-700v600z" />
    <glyph glyph-name="six" unicode="6" 
d="M600 1000h300v-100h-100v-100h-100v-100h-100v-100h400v-100h100v-400h-100v-100h-700v100h-100v400h100v200h100v100h100v100h100v100zM500 400v-200h400v200h-400z" />
    <glyph glyph-name="seven" unicode="7" 
d="M200 1000h900v-300h-100v-100h-100v-100h-100v-100h-100v-200h-100v-200h-300v200h100v200h100v100h100v100h100v100h100v100h-600v200z" />
    <glyph glyph-name="eight" unicode="8" 
d="M300 1000h700v-100h100v-300h-100v-200h100v-300h-100v-100h-700v100h-100v300h100v200h-100v300h100v100zM500 800v-200h300v200h-300zM500 400v-200h300v200h-300z" />
    <glyph glyph-name="nine" unicode="9" 
d="M300 1000h700v-100h100v-400h-100v-200h-100v-100h-100v-100h-100v-100h-300v100h100v100h100v100h100v100h-400v100h-100v400h100v100zM400 800v-200h400v200h-400z" />
    <glyph glyph-name="colon" unicode=":" 
d="M500 800h200v-300h-200v300zM500 300h200v-300h-200v300z" />
    <glyph glyph-name="semicolon" unicode=";" 
d="M500 800h200v-300h-200v300zM500 300h200v-200h-100v-100h-200v100h100v200z" />
    <glyph glyph-name="less" unicode="&#x3c;" 
d="M800 900h300v-100h-100v-100h-200v-100h-200v-100h-100v-100h100v-100h200v-100h200v-100h100v-100h-300v100h-200v100h-200v100h-100v100h-100v100h100v100h100v100h200v100h200v100z" />
    <glyph glyph-name="equal" unicode="=" 
d="M200 800h800v-200h-800v200zM200 400h800v-200h-800v200z" />
    <glyph glyph-name="greater" unicode="&#x3e;" 
d="M100 900h300v-100h200v-100h200v-100h100v-100h100v-100h-100v-100h-100v-100h-200v-100h-200v-100h-300v100h100v100h200v100h200v100h100v100h-100v100h-200v100h-200v100h-100v100z" />
    <glyph glyph-name="question" unicode="?" 
d="M300 1000h600v-100h100v-300h-100v-100h-100v-100h-100v-100h-200v200h100v100h200v200h-400v-200h-200v300h100v100zM500 200h200v-200h-200v200z" />
    <glyph glyph-name="at" unicode="@" 
d="M300 1100h700v-100h100v-700h-100v-100h-400v100h-100v400h100v100h300v100h-500v-100h-100v-600h100v-100h600v-200h-700v100h-100v100h-100v800h100v100h100v100zM700 600v-200h200v200h-200z" />
    <glyph glyph-name="A" unicode="A" 
d="M400 1000h400v-100h100v-100h100v-100h100v-700h-200v300h-600v-300h-200v700h100v100h100v100h100v100zM500 800v-100h-100v-100h-100v-100h600v100h-100v100h-100v100h-200z" />
    <glyph glyph-name="B" unicode="B" 
d="M200 1000h800v-100h100v-300h-100v-200h100v-300h-100v-100h-800v1000zM400 800v-200h500v200h-500zM400 400v-200h500v200h-500z" />
    <glyph glyph-name="C" unicode="C" 
d="M400 1000h600v-100h100v-200h-200v100h-400v-100h-100v-400h100v-100h400v100h200v-200h-100v-100h-600v100h-100v100h-100v600h100v100h100v100z" />
    <glyph glyph-name="D" unicode="D" 
d="M200 1000h700v-100h100v-100h100v-600h-100v-100h-100v-100h-700v1000zM400 800v-600h400v100h100v400h-100v100h-400z" />
    <glyph glyph-name="E" unicode="E" 
d="M200 1000h900v-200h-700v-200h500v-200h-500v-200h700v-200h-900v1000z" />
    <glyph glyph-name="F" unicode="F" 
d="M200 1000h900v-200h-700v-200h400v-200h-400v-400h-200v1000z" />
    <glyph glyph-name="G" unicode="G" 
d="M300 1000h700v-100h100v-200h-200v100h-500v-600h500v100h-300v200h500v-400h-100v-100h-700v100h-100v800h100v100z" />
    <glyph glyph-name="H" unicode="H" 
d="M100 1000h200v-400h600v400h200v-1000h-200v400h-600v-400h-200v1000z" />
    <glyph glyph-name="I" unicode="I" 
d="M200 1000h800v-200h-300v-600h300v-200h-800v200h300v600h-300v200z" />
    <glyph glyph-name="J" unicode="J" 
d="M900 1000h200v-800h-100v-100h-100v-100h-500v100h-100v100h-100v200h200v-100h100v-100h300v100h100v700z" />
    <glyph glyph-name="K" unicode="K" 
d="M200 1000h200v-400h100v100h100v100h100v100h100v100h300v-100h-100v-100h-100v-100h-100v-100h-100v-200h100v-100h100v-100h100v-100h100v-100h-300v100h-100v100h-100v100h-100v100h-100v-400h-200v1000z" />
    <glyph glyph-name="L" unicode="L" 
d="M200 1000h200v-800h700v-200h-900v1000z" />
    <glyph glyph-name="M" unicode="M" 
d="M100 1000h200v-100h100v-100h100v-100h200v100h100v100h100v100h200v-1000h-200v600h-100v-100h-100v-100h-200v100h-100v100h-100v-600h-200v1000z" />
    <glyph glyph-name="N" unicode="N" 
d="M100 1000h300v-100h100v-100h100v-100h100v-200h100v-200h100v700h200v-1000h-300v100h-100v200h-100v100h-100v200h-100v100h-100v-700h-200v1000z" />
    <glyph glyph-name="O" unicode="O" 
d="M300 1000h700v-100h100v-800h-100v-100h-700v100h-100v800h100v100zM400 800v-600h500v600h-500z" />
    <glyph glyph-name="P" unicode="P" 
d="M200 1000h800v-100h100v-400h-100v-100h-600v-400h-200v1000zM400 800v-200h500v200h-500z" />
    <glyph glyph-name="Q" unicode="Q" 
d="M300 1000h700v-100h100v-700h-100v-100h-100v-100h200v-200h-300v100h-100v200h-400v100h-100v700h100v100zM400 800v-500h200v100h200v-100h100v500h-500z" />
    <glyph glyph-name="R" unicode="R" 
d="M200 1000h800v-100h100v-400h-100v-100h-200v-100h100v-100h200v-200h-300v100h-100v100h-100v100h-100v100h-100v-400h-200v1000zM400 800v-200h500v200h-500z" />
    <glyph glyph-name="S" unicode="S" 
d="M300 1000h700v-200h-600v-200h600v-100h100v-400h-100v-100h-700v200h600v200h-600v100h-100v400h100v100z" />
    <glyph glyph-name="T" unicode="T" 
d="M100 1000h1000v-200h-400v-800h-200v800h-400v200z" />
    <glyph glyph-name="U" unicode="U" 
d="M200 1000h200v-800h500v800h200v-900h-100v-100h-700v100h-100v900z" />
    <glyph glyph-name="V" unicode="V" 
d="M100 1000h200v-200h100v-200h100v-300h200v300h100v200h100v200h200v-200h-100v-200h-100v-300h-100v-200h-100v-100h-200v100h-100v200h-100v300h-100v200h-100v200z" />
    <glyph glyph-name="W" unicode="W" 
d="M100 1000h200v-700h100v100h100v300h200v-300h100v-100h100v700h200v-800h-100v-200h-200v100h-100v100h-200v-100h-100v-100h-200v200h-100v800z" />
    <glyph glyph-name="X" unicode="X" 
d="M200 1000h200v-100h100v-100h200v100h100v100h200v-200h-100v-100h-100v-100h-100v-200h100v-100h100v-100h100v-200h-200v100h-100v100h-200v-100h-100v-100h-200v200h100v100h100v100h100v200h-100v100h-100v100h-100v200z" />
    <glyph glyph-name="Y" unicode="Y" 
d="M100 1000h200v-100h100v-100h100v-100h200v100h100v100h100v100h200v-200h-100v-100h-100v-100h-100v-100h-100v-500h-200v500h-100v100h-100v100h-100v100h-100v200z" />
    <glyph glyph-name="Z" unicode="Z" 
d="M200 1000h800v-200h-100v-100h-100v-100h-100v-200h-100v-200h400v-200h-800v200h100v100h100v200h100v200h100v100h-400v200z" />
    <glyph glyph-name="bracketleft" unicode="[" 
d="M300 1000h500v-200h-300v-600h300v-200h-500v1000z" />
    <glyph glyph-name="backslash" unicode="\" 
d="M100 1000h200v-100h100v-100h100v-100h100v-100h100v-100h100v-100h100v-100h100v-100h100v-200h-200v100h-100v100h-100v100h-100v100h-100v100h-100v100h-100v100h-100v100h-100v200z" />
    <glyph glyph-name="bracketright" unicode="]" 
d="M300 1000h500v-1000h-500v200h300v600h-300v200z" />
    <glyph glyph-name="asciicircum" unicode="^" 
d="M500 1000h200v-100h100v-100h100v-100h100v-200h-200v100h-100v100h-200v-100h-100v-100h-200v200h100v100h100v100h100v100z" />
    <glyph glyph-name="underscore" unicode="_" 
d="M200 0h800v-200h-800v200z" />
    <glyph glyph-name="grave" unicode="`" 
d="M400 1000h200v-100h100v-100h100v-100h-200v100h-100v100h-100v100z" />
    <glyph glyph-name="a" unicode="a" 
d="M200 700h700v-100h100v-400h100v-200h-900v100h-100v200h100v100h600v100h-100v100h-300v-100h-300v100h100v100zM300 300v-100h100v-100h300v100h100v100h-500z" />
    <glyph glyph-name="b" unicode="b" 
d="M200 1000h200v-500h100v-200h-100v-100h500v300h-400v200h500v-100h100v-500h-100v-100h-800v1000z" />
    <glyph glyph-name="c" unicode="c" 
d="M400 700h600v-200h100v-100h-200v100h-400v-300h400v100h200v-100h-100v-200h-600v100h-100v100h-100v300h100v100h100v100z" />
    <glyph glyph-name="d" unicode="d" 
d="M900 1000h200v-1000h-800v100h-100v500h100v100h500v-200h-400v-300h500v100h-100v200h100v500z" />
    <glyph glyph-name="e" unicode="e" 
d="M300 700h700v-100h100v-300h-700v-100h100v-100h300v100h200v-200h-700v100h-100v500h100v100zM500 600v-100h-100v-100h500v100h-100v100h-300z" />
    <glyph glyph-name="f" unicode="f" 
d="M500 1000h600v-200h-500v-200h300v-200h-300v-400h-200v400h-200v200h200v300h100v100z" />
    <glyph glyph-name="g" unicode="g" 
d="M300 700h800v-700h-100v-100h-700v200h600v200h-100v-100h-500v100h-100v300h100v100zM500 600v-100h-100v-100h100v-100h200v100h100v200h-300z" />
    <glyph glyph-name="h" unicode="h" 
d="M200 1000h200v-400h100v100h500v-100h100v-600h-200v500h-400v-100h-100v-400h-200v1000z" />
    <glyph glyph-name="i" unicode="i" 
d="M400 1000h300v-200h-300v200zM400 700h300v-500h200v-200h-600v200h200v300h-100v200z" />
    <glyph glyph-name="j" unicode="j" 
d="M600 700h300v-800h-100v-100h-500v100h-100v200h200v-100h300v400h-100v300zM600 1000h300v-200h-300v200z" />
    <glyph glyph-name="k" unicode="k" 
d="M200 1000h200v-600h200v100h100v100h100v100h300v-100h-100v-100h-100v-100h-100v-100h100v-100h100v-100h100v-100h-300v100h-100v100h-300v-200h-200v1000z" />
    <glyph glyph-name="l" unicode="l" 
d="M300 1000h400v-800h300v-200h-800v200h300v600h-200v200z" />
    <glyph glyph-name="m" unicode="m" 
d="M100 700h200v-100h100v100h200v-100h100v100h300v-100h100v-600h-200v500h-200v-500h-200v500h-200v-500h-200v700z" />
    <glyph glyph-name="n" unicode="n" 
d="M200 700h200v-100h100v100h500v-100h100v-600h-200v500h-400v-100h-100v-400h-200v700z" />
    <glyph glyph-name="o" unicode="o" 
d="M300 700h700v-100h100v-500h-100v-100h-700v100h-100v500h100v100zM400 500v-300h500v300h-500z" />
    <glyph glyph-name="p" unicode="p" 
d="M200 700h200v-100h100v100h500v-100h100v-400h-100v-100h-500v100h-100v-400h-200v900zM500 500v-200h400v200h-400z" />
    <glyph glyph-name="q" unicode="q" 
d="M300 700h400v-100h100v100h200v-800h100v-100h-500v100h100v100h100v200h-100v-100h-400v100h-100v400h100v100zM400 500v-200h300v200h-300z" />
    <glyph glyph-name="r" unicode="r" 
d="M200 700h200v-200h100v100h100v100h400v-200h-400v-200h-200v-300h-200v700z" />
    <glyph glyph-name="s" unicode="s" 
d="M300 700h700v-200h-300v100h-200v-100h-100v-100h600v-100h100v-200h-100v-100h-700v200h300v-100h200v100h100v100h-600v100h-100v200h100v100z" />
    <glyph glyph-name="t" unicode="t" 
d="M400 900h200v-200h300v-200h-300v-300h500v-200h-600v100h-100v400h-200v200h200v200z" />
    <glyph glyph-name="u" unicode="u" 
d="M200 700h200v-500h400v100h100v400h200v-700h-200v100h-100v-100h-500v100h-100v600z" />
    <glyph glyph-name="v" unicode="v" 
d="M100 700h200v-200h100v-100h100v-100h200v100h100v100h100v200h200v-300h-100v-100h-100v-100h-100v-100h-100v-100h-200v100h-100v100h-100v100h-100v100h-100v300z" />
    <glyph glyph-name="w" unicode="w" 
d="M100 700h200v-600h100v100h100v300h200v-300h100v-100h100v600h200v-500h-100v-200h-300v100h-200v-100h-300v200h-100v500z" />
    <glyph glyph-name="x" unicode="x" 
d="M100 700h300v-100h100v-100h200v100h100v100h300v-100h-100v-100h-100v-100h-100v-100h100v-100h100v-100h100v-100h-300v100h-100v100h-200v-100h-100v-100h-300v100h100v100h100v100h100v100h-100v100h-100v100h-100v100z" />
    <glyph glyph-name="y" unicode="y" 
d="M200 700h200v-100h100v-100h100v-100h100v100h100v100h100v100h200v-200h-100v-100h-100v-100h-100v-100h-100v-100h-100v-100h-100v-100h-100v-100h-300v100h100v100h100v100h100v100h100v200h-200v100h-100v200z" />
    <glyph glyph-name="z" unicode="z" 
d="M200 700h900v-100h-100v-100h-100v-100h-100v-100h-100v-100h400v-200h-900v100h100v100h100v100h100v100h100v100h-400v200z" />
    <glyph glyph-name="braceleft" unicode="{" 
d="M700 1000h300v-200h-200v-100h-100v-100h-100v-100h100v-200h100v-100h200v-200h-300v100h-100v200h-100v100h-200v200h200v100h100v200h100v100z" />
    <glyph glyph-name="bar" unicode="|" 
d="M500 1000h200v-1000h-200v1000z" />
    <glyph glyph-name="braceright" unicode="}" 
d="M300 1000h300v-100h100v-100h100v-200h200v-200h-200v-100h-100v-200h-100v-100h-300v200h200v100h100v200h100v100h-100v100h-100v100h-200v200z" />
    <glyph glyph-name="asciitilde" unicode="~" 
d="M300 1000h300v-100h100v-100h100v100h100v100h100v-200h-100v-100h-300v100h-100v100h-100v-100h-100v-100h-100v200h100v100z" />
    <glyph glyph-name="exclamdown" unicode="&#xa1;" 
d="M400 1100h300v-200h-300v200zM400 700h300v-700h-300v700z" />
    <glyph glyph-name="cent" unicode="&#xa2;" 
d="M600 1200h200v-200h200v-200h100v-100h-200v100h-100v-300h100v100h200v-100h-100v-200h-200v-200h-200v200h-200v100h-100v100h-100v300h100v100h100v100h200v200zM600 800h-100v-300h100v300z" />
    <glyph glyph-name="sterling" unicode="&#xa3;" 
d="M400 1000h600v-100h100v-200h-200v100h-400v-200h300v-200h-200v-200h300v100h200v-200h-100v-100h-400v100h-200v-100h-200v200h100v100h100v100h-200v200h100v300h100v100z" />
    <glyph glyph-name="yen" unicode="&#xa5;" 
d="M100 1000h200v-100h100v-100h100v-100h200v100h100v100h100v100h200v-200h-100v-100h-100v-100h-100v-100h200v-100h-300v-100h300v-100h-300v-200h-200v200h-300v100h300v100h-300v100h200v100h-100v100h-100v100h-100v200z" />
    <glyph glyph-name="brokenbar" unicode="&#xa6;" 
d="M500 1000h200v-400h-200v400zM500 400h200v-400h-200v400z" />
    <glyph glyph-name="section" unicode="&#xa7;" 
d="M300 1100h600v-100h100v-200h-200v100h-400v-100h100v-100h400v-100h100v-300h-100v-100h100v-300h-100v-100h-600v100h-100v200h200v-100h400v100h-100v100h-400v100h-100v300h100v100h-100v300h100v100zM400 500v-100h400v100h-400z" />
    <glyph glyph-name="dieresis" unicode="&#xa8;" 
d="M200 1000h300v-200h-300v200zM700 1000h300v-200h-300v200z" />
    <glyph glyph-name="copyright" unicode="&#xa9;" 
d="M300 1100h600v-100h100v-100h100v-800h-100v-100h-100v-100h-600v100h-100v100h-100v800h100v100h100v100zM400 900v-100h-100v-600h100v-100h400v100h100v600h-100v100h-400zM400 800h300v-100h100v-400h-100v-100h-300v200h200v200h-200v200z" />
    <glyph glyph-name="ordfeminine" unicode="&#xaa;" 
d="M200 1100h700v-400h200v-200h-900v100h-100v400h100v100zM300 900v-200h400v200h-400zM100 400h1000v-200h-1000v200z" />
    <glyph glyph-name="guillemotleft" unicode="&#xab;" 
d="M900 900h300v-100h-100v-100h-100v-100h-100v-200h100v-100h100v-100h100v-100h-300v100h-100v100h-100v100h-100v200h100v100h100v100h100v100zM300 900h300v-100h-100v-100h-100v-100h-100v-200h100v-100h100v-100h100v-100h-300v100h-100v100h-100v100h-100v200h100
v100h100v100h100v100z" />
    <glyph glyph-name="logicalnot" unicode="&#xac;" 
d="M200 600h800v-500h-200v300h-600v200z" />
    <glyph glyph-name="degree" unicode="&#xb0;" 
d="M400 1100h400v-100h100v-400h-100v-100h-400v100h-100v400h100v100zM500 900v-200h200v200h-200z" />
    <glyph glyph-name="plusminus" unicode="&#xb1;" 
d="M500 1100h200v-300h300v-200h-300v-300h-200v300h-300v200h300v300zM200 100h800v-200h-800v200z" />
    <glyph glyph-name="acute" unicode="&#xb4;" 
d="M600 1000h200v-100h-100v-100h-100v-100h-200v100h100v100h100v100z" />
    <glyph glyph-name="mu" unicode="&#xb5;" 
d="M300 700h200v-400h400v400h200v-500h-100v-100h-500v-200h-100v-100h-200v200h100v700z" />
    <glyph glyph-name="paragraph" unicode="&#xb6;" 
d="M300 1000h800v-1000h-200v800h-200v-800h-200v400h-200v100h-100v400h100v100z" />
    <glyph glyph-name="periodcentered" unicode="&#xb7;" 
d="M400 900h200v-300h-200v300z" />
    <glyph glyph-name="cedilla" unicode="&#xb8;" 
d="M500 100h200v-300h-400v200h200v100z" />
    <glyph glyph-name="ordmasculine" unicode="&#xba;" 
d="M100 400h900v-200h-900v200zM200 1100h700v-100h100v-400h-100v-100h-700v100h-100v400h100v100zM300 900v-200h500v200h-500z" />
    <glyph glyph-name="guillemotright" unicode="&#xbb;" 
d="M600 900h300v-100h100v-100h100v-100h100v-200h-100v-100h-100v-100h-100v-100h-300v100h100v100h100v100h100v200h-100v100h-100v100h-100v100zM0 900h300v-100h100v-100h100v-100h100v-200h-100v-100h-100v-100h-100v-100h-300v100h100v100h100v100h100v200h-100v100
h-100v100h-100v100z" />
    <glyph glyph-name="questiondown" unicode="&#xbf;" 
d="M500 1000h200v-200h-200v200zM500 700h200v-200h-100v-100h-200v-200h400v200h200v-300h-100v-100h-600v100h-100v300h100v100h100v100h100v100z" />
    <glyph glyph-name="Agrave" unicode="&#xc0;" 
d="M300 900h600v-100h100v-100h100v-700h-200v300h-600v-300h-200v700h100v100h100v100zM400 700v-100h-100v-100h600v100h-100v100h-400zM300 1200h300v-100h100v-100h-300v100h-100v100z" />
    <glyph glyph-name="Aacute" unicode="&#xc1;" 
d="M600 1200h300v-100h-100v-100h-300v100h100v100zM300 900h600v-100h100v-100h100v-700h-200v300h-600v-300h-200v700h100v100h100v100zM400 700v-100h-100v-100h600v100h-100v100h-400z" />
    <glyph glyph-name="Acircumflex" unicode="&#xc2;" 
d="M400 700v-100h-100v-100h600v100h-100v100h-400zM500 1200h200v-100h100v-100h100v-100h-100v-100h200v-100h100v-700h-200v300h-600v-300h-200v700h100v100h200v100h-100v100h100v100h100v100zM500 900h200v100h-200v-100z" />
    <glyph glyph-name="Atilde" unicode="&#xc3;" 
d="M400 700v-100h-100v-100h600v100h-100v100h-400zM300 1200h300v-100h200v100h200v-100h-100v-100h-200v-100h200v-100h100v-100h100v-700h-200v300h-600v-300h-200v700h100v100h100v100h200v200h-100v-100h-200v100h100v100z" />
    <glyph glyph-name="Adieresis" unicode="&#xc4;" 
d="M100 1200h300v-200h-300v200zM800 1200h300v-200h-300v200zM300 900h600v-100h100v-100h100v-700h-200v300h-600v-300h-200v700h100v100h100v100zM400 700v-100h-100v-100h600v100h-100v100h-400z" />
    <glyph glyph-name="Aring" unicode="&#xc5;" 
d="M400 700v-100h-100v-100h600v100h-100v100h-400zM500 1100v-100h200v100h-200zM400 1200h400v-100h100v-100h-100v-100h100v-100h100v-100h100v-700h-200v300h-600v-300h-200v700h100v100h100v100h100v100h-100v100h100v100z" />
    <glyph glyph-name="AE" unicode="&#xc6;" 
d="M200 1000h1000v-200h-500v-200h300v-200h-300v-200h500v-200h-700v300h-300v-300h-200v800h100v100h100v100zM300 800v-100h-100v-200h300v300h-200z" />
    <glyph glyph-name="Ccedilla" unicode="&#xc7;" 
d="M400 1000h600v-100h100v-200h-100v100h-500v-100h-100v-400h100v-100h400v100h200v-200h-100v-100h-300v-200h-400v200h200v100h-200v100h-100v600h100v100h100v100z" />
    <glyph glyph-name="Egrave" unicode="&#xc8;" 
d="M400 1200h300v-100h100v-100h-300v100h-100v100zM200 900h900v-200h-700v-200h500v-100h-500v-200h700v-200h-900v900z" />
    <glyph glyph-name="Eacute" unicode="&#xc9;" 
d="M600 1200h300v-100h-100v-100h-300v100h100v100zM200 900h900v-200h-700v-200h500v-100h-500v-200h700v-200h-900v900z" />
    <glyph glyph-name="Ecircumflex" unicode="&#xca;" 
d="M600 1200h100v-100h100v-100h100v-100h200v-200h-700v-200h500v-100h-500v-200h700v-200h-900v900h200v100h100v100h100v100zM600 900h100v100h-100v-100z" />
    <glyph glyph-name="Edieresis" unicode="&#xcb;" 
d="M200 1200h300v-200h-300v200zM800 1200h300v-200h-300v200zM200 900h900v-200h-700v-200h500v-100h-500v-200h700v-200h-900v900z" />
    <glyph glyph-name="Igrave" unicode="&#xcc;" 
d="M400 1200h300v-100h100v-100h-300v100h-100v100zM200 900h800v-200h-300v-500h300v-200h-800v200h300v500h-300v200z" />
    <glyph glyph-name="Iacute" unicode="&#xcd;" 
d="M500 1200h300v-100h-100v-100h-300v100h100v100zM200 900h800v-200h-300v-500h300v-200h-800v200h300v500h-300v200z" />
    <glyph glyph-name="Icircumflex" unicode="&#xce;" 
d="M500 1200h200v-100h100v-100h100v-100h100v-200h-300v-500h300v-200h-800v200h300v500h-300v200h100v100h100v100h100v100zM500 900h200v100h-200v-100z" />
    <glyph glyph-name="Idieresis" unicode="&#xcf;" 
d="M200 1200h300v-200h-300v200zM700 1200h300v-200h-300v200zM200 900h800v-200h-300v-500h300v-200h-800v200h300v500h-300v200z" />
    <glyph glyph-name="Eth" unicode="&#xd0;" 
d="M200 1000h700v-100h100v-100h100v-600h-100v-100h-100v-100h-700v400h-100v200h100v400zM400 400v-200h400v100h100v400h-100v100h-400v-200h200v-200h-200z" />
    <glyph glyph-name="Ntilde" unicode="&#xd1;" 
d="M200 1200h400v-100h100v-100h100v100h100v100h100v-200h-100v-100h-400v100h-100v100h-100v-100h-200v100h100v100zM100 900h400v-100h100v-100h100v-200h100v-200h100v600h200v-900h-300v100h-100v200h-100v100h-100v200h-100v100h-100v-700h-200v900z" />
    <glyph glyph-name="Ograve" unicode="&#xd2;" 
d="M300 900h700v-100h100v-700h-100v-100h-700v100h-100v700h100v100zM400 700v-500h500v500h-500zM400 1200h300v-100h100v-100h-300v100h-100v100z" />
    <glyph glyph-name="Oacute" unicode="&#xd3;" 
d="M600 1200h300v-100h-100v-100h-300v100h100v100zM300 900h700v-100h100v-700h-100v-100h-700v100h-100v700h100v100zM400 700v-500h500v500h-500z" />
    <glyph glyph-name="Ocircumflex" unicode="&#xd4;" 
d="M400 700v-500h500v500h-500zM600 1200h100v-100h100v-100h100v-100h100v-100h100v-700h-100v-100h-700v100h-100v700h100v100h100v100h100v100h100v100zM600 900h100v100h-100v-100z" />
    <glyph glyph-name="Otilde" unicode="&#xd5;" 
d="M300 1200h400v-100h200v100h200v-100h-100v-100h-400v100h-200v-100h-200v100h100v100zM300 900h700v-100h100v-700h-100v-100h-700v100h-100v700h100v100zM400 700v-500h500v500h-500z" />
    <glyph glyph-name="Odieresis" unicode="&#xd6;" 
d="M200 1200h300v-200h-300v200zM800 1200h300v-200h-300v200zM300 900h700v-100h100v-700h-100v-100h-700v100h-100v700h100v100zM400 700v-500h500v500h-500z" />
    <glyph glyph-name="multiply" unicode="&#xd7;" 
d="M200 900h200v-100h100v-100h200v100h100v100h200v-200h-100v-100h-100v-200h100v-100h100v-200h-200v100h-100v100h-200v-100h-100v-100h-200v200h100v100h100v200h-100v100h-100v200z" />
    <glyph glyph-name="Oslash" unicode="&#xd8;" 
d="M1000 1200h100v-200h-100v-100h100v-800h-100v-100h-600v-100h-100v-100h-100v200h100v100h-100v800h100v100h600v100h100v100zM400 800v-400h100v100h100v100h100v200h-300zM800 600v-100h-100v-100h-100v-200h300v400h-100z" />
    <glyph glyph-name="Ugrave" unicode="&#xd9;" 
d="M200 900h200v-700h500v700h200v-800h-100v-100h-700v100h-100v800zM400 1200h300v-100h100v-100h-300v100h-100v100z" />
    <glyph glyph-name="Uacute" unicode="&#xda;" 
d="M600 1200h300v-100h-100v-100h-300v100h100v100zM200 900h200v-700h500v700h200v-800h-100v-100h-700v100h-100v800z" />
    <glyph glyph-name="Ucircumflex" unicode="&#xdb;" 
d="M600 1200h100v-100h100v-100h100v-100h-200v100h-100v-100h-200v100h100v100h100v100zM200 900h200v-700h500v700h200v-800h-100v-100h-700v100h-100v800z" />
    <glyph glyph-name="Udieresis" unicode="&#xdc;" 
d="M200 1200h300v-200h-300v200zM800 1200h300v-200h-300v200zM200 900h200v-700h500v700h200v-800h-100v-100h-700v100h-100v800z" />
    <glyph glyph-name="Yacute" unicode="&#xdd;" 
d="M600 1200h300v-100h-100v-100h-300v100h100v100zM100 900h200v-100h100v-100h100v-100h200v100h100v100h100v100h200v-200h-100v-100h-100v-100h-100v-100h-100v-400h-200v400h-100v100h-100v100h-100v100h-100v200z" />
    <glyph glyph-name="Thorn" unicode="&#xde;" 
d="M400 600v-200h500v200h-500zM200 1000h200v-200h600v-100h100v-400h-100v-100h-600v-200h-200v1000z" />
    <glyph glyph-name="germandbls" unicode="&#xdf;" 
d="M400 1000h500v-100h100v-200h-100v-100h100v-100h100v-400h-100v-100h-400v200h300v300h-300v200h200v200h-300v-100h-100v-1000h-200v1000h100v100h100v100z" />
    <glyph glyph-name="agrave" unicode="&#xe0;" 
d="M300 1100h200v-100h100v-100h100v-100h-200v100h-100v100h-100v100zM200 700h700v-100h100v-400h100v-200h-900v100h-100v200h100v100h600v100h-100v100h-300v-100h-300v100h100v100zM300 300v-100h100v-100h300v100h100v100h-500z" />
    <glyph glyph-name="aacute" unicode="&#xe1;" 
d="M600 1100h200v-100h-100v-100h-100v-100h-200v100h100v100h100v100zM200 700h700v-100h100v-400h100v-200h-900v100h-100v200h100v100h600v100h-100v100h-300v-100h-300v100h100v100zM300 300v-100h100v-100h300v100h100v100h-500z" />
    <glyph glyph-name="acircumflex" unicode="&#xe2;" 
d="M500 1100h100v-100h100v-100h100v-100h-200v100h-100v-100h-200v100h100v100h100v100zM200 700h700v-100h100v-400h100v-200h-900v100h-100v200h100v100h600v100h-100v100h-300v-100h-300v100h100v100zM300 300v-100h100v-100h300v100h100v100h-500z" />
    <glyph glyph-name="atilde" unicode="&#xe3;" 
d="M300 1100h300v-100h100v-100h100v100h100v100h100v-200h-100v-100h-300v100h-100v100h-100v-100h-100v-100h-100v200h100v100zM200 700h700v-100h100v-400h100v-200h-900v100h-100v200h100v100h600v100h-100v100h-300v-100h-300v100h100v100zM300 300v-100h100v-100h300
v100h100v100h-500z" />
    <glyph glyph-name="adieresis" unicode="&#xe4;" 
d="M300 1000h200v-200h-200v200zM700 1000h200v-200h-200v200zM200 700h700v-100h100v-400h100v-200h-900v100h-100v200h100v100h600v100h-100v100h-300v-100h-300v100h100v100zM300 300v-100h100v-100h300v100h100v100h-500z" />
    <glyph glyph-name="aring" unicode="&#xe5;" 
d="M400 1100h400v-100h100v-100h-100v-100h-400v100h-100v100h100v100zM500 1000v-100h200v100h-200zM200 700h700v-100h100v-400h100v-200h-900v100h-100v200h100v100h600v100h-100v100h-300v-100h-300v100h100v100zM300 300v-100h100v-100h300v100h100v100h-500z" />
    <glyph glyph-name="ae" unicode="&#xe6;" 
d="M700 600v-200h300v100h-100v100h-200zM1100 200v-200h-1000v100h-100v200h100v100h400v200h-200v-100h-300v100h100v100h1000v-100h100v-300h-500v-200h200v100h200zM300 100h200v200h-300v-100h100v-100z" />
    <glyph glyph-name="ccedilla" unicode="&#xe7;" 
d="M400 700h700v-200h-600v-300h600v-200h-400v-200h-400v100h100v100h200v100h-300v100h-100v300h100v100h100v100z" />
    <glyph glyph-name="egrave" unicode="&#xe8;" 
d="M400 1100h200v-100h100v-100h100v-100h-200v100h-100v100h-100v100zM300 700h700v-100h100v-300h-700v-100h100v-100h300v100h200v-200h-700v100h-100v500h100v100zM500 600v-100h-100v-100h500v100h-100v100h-300z" />
    <glyph glyph-name="eacute" unicode="&#xe9;" 
d="M700 1100h200v-100h-100v-100h-100v-100h-200v100h100v100h100v100zM300 700h700v-100h100v-300h-700v-100h100v-100h300v100h200v-200h-700v100h-100v500h100v100zM500 600v-100h-100v-100h500v100h-100v100h-300z" />
    <glyph glyph-name="ecircumflex" unicode="&#xea;" 
d="M600 1100h100v-100h100v-100h100v-100h-200v100h-100v-100h-200v100h100v100h100v100zM300 700h700v-100h100v-300h-700v-100h100v-100h300v100h200v-200h-700v100h-100v500h100v100zM500 600v-100h-100v-100h500v100h-100v100h-300z" />
    <glyph glyph-name="edieresis" unicode="&#xeb;" 
d="M400 1000h200v-200h-200v200zM800 1000h200v-200h-200v200zM300 700h700v-100h100v-300h-700v-100h100v-100h300v100h200v-200h-700v100h-100v500h100v100zM500 600v-100h-100v-100h500v100h-100v100h-300z" />
    <glyph glyph-name="igrave" unicode="&#xec;" 
d="M400 1100h100v-100h100v-100h100v-200h-100v100h-100v100h-100v200zM400 600h300v-400h200v-200h-600v200h200v200h-100v200z" />
    <glyph glyph-name="iacute" unicode="&#xed;" 
d="M700 1100h100v-200h-100v-100h-100v-100h-100v200h100v100h100v100zM400 600h300v-400h200v-200h-600v200h200v200h-100v200z" />
    <glyph glyph-name="icircumflex" unicode="&#xee;" 
d="M500 1000h100v-100h100v-100h100v-100h-200v100h-100v-100h-200v100h100v100h100v100zM400 600h300v-400h200v-200h-600v200h200v200h-100v200z" />
    <glyph glyph-name="idieresis" unicode="&#xef;" 
d="M300 900h200v-200h-200v200zM600 900h200v-200h-200v200zM400 600h300v-400h200v-200h-600v200h200v200h-100v200z" />
    <glyph glyph-name="eth" unicode="&#xf0;" 
d="M900 1000h200v-100h100v-100h-100v-800h-800v100h-100v500h100v100h500v-200h-400v-300h500v100h-100v200h100v300h-200v100h200v100z" />
    <glyph glyph-name="ntilde" unicode="&#xf1;" 
d="M300 1100h400v-100h100v-100h100v100h100v100h100v-200h-100v-100h-400v100h-100v100h-100v-100h-100v-100h-100v200h100v100zM200 700h200v-100h100v100h500v-100h100v-600h-200v500h-400v-100h-100v-400h-200v700z" />
    <glyph glyph-name="ograve" unicode="&#xf2;" 
d="M400 1100h200v-100h100v-100h100v-100h-200v100h-100v100h-100v100zM300 700h700v-100h100v-500h-100v-100h-700v100h-100v500h100v100zM400 500v-300h500v300h-500z" />
    <glyph glyph-name="oacute" unicode="&#xf3;" 
d="M700 1100h200v-100h-100v-100h-100v-100h-200v100h100v100h100v100zM300 700h700v-100h100v-500h-100v-100h-700v100h-100v500h100v100zM400 500v-300h500v300h-500z" />
    <glyph glyph-name="ocircumflex" unicode="&#xf4;" 
d="M600 1100h100v-100h100v-100h100v-100h-200v100h-100v-100h-200v100h100v100h100v100zM300 700h700v-100h100v-500h-100v-100h-700v100h-100v500h100v100zM400 500v-300h500v300h-500z" />
    <glyph glyph-name="otilde" unicode="&#xf5;" 
d="M300 1100h300v-100h100v-100h100v100h100v100h100v-200h-100v-100h-300v100h-100v100h-100v-100h-100v-100h-100v200h100v100zM300 700h700v-100h100v-500h-100v-100h-700v100h-100v500h100v100zM400 500v-300h500v300h-500z" />
    <glyph glyph-name="odieresis" unicode="&#xf6;" 
d="M300 1000h200v-200h-200v200zM800 1000h200v-200h-200v200zM300 700h700v-100h100v-500h-100v-100h-700v100h-100v500h100v100zM400 500v-300h500v300h-500z" />
    <glyph glyph-name="divide" unicode="&#xf7;" 
d="M500 1000h200v-200h-200v200zM500 200h200v-200h-200v200zM200 600h800v-200h-800v200z" />
    <glyph glyph-name="oslash" unicode="&#xf8;" 
d="M1000 900h100v-200h-100v-100h100v-500h-100v-100h-600v-100h-100v-100h-100v200h100v100h-100v500h100v100h600v100h100v100zM400 500v-200h100v100h100v100h-200zM900 400h-100v-100h-100v-100h200v200z" />
    <glyph glyph-name="ugrave" unicode="&#xf9;" 
d="M400 1100h200v-100h100v-100h100v-100h-200v100h-100v100h-100v100zM200 700h200v-500h400v100h100v400h200v-700h-200v100h-100v-100h-500v100h-100v600z" />
    <glyph glyph-name="uacute" unicode="&#xfa;" 
d="M700 1100h200v-100h-100v-100h-100v-100h-200v100h100v100h100v100zM200 700h200v-500h400v100h100v400h200v-700h-200v100h-100v-100h-500v100h-100v600z" />
    <glyph glyph-name="ucircumflex" unicode="&#xfb;" 
d="M600 1100h100v-100h100v-100h100v-100h-200v100h-100v-100h-200v100h100v100h100v100zM200 700h200v-500h400v100h100v400h200v-700h-200v100h-100v-100h-500v100h-100v600z" />
    <glyph glyph-name="udieresis" unicode="&#xfc;" 
d="M300 1000h200v-200h-200v200zM800 1000h200v-200h-200v200zM200 700h200v-500h400v100h100v400h200v-700h-200v100h-100v-100h-500v100h-100v600z" />
    <glyph glyph-name="yacute" unicode="&#xfd;" 
d="M700 1100h200v-100h-100v-100h-100v-100h-200v100h100v100h100v100zM200 700h200v-100h100v-100h100v-100h100v100h100v100h100v100h200v-200h-100v-100h-100v-100h-100v-100h-100v-100h-100v-100h-100v-100h-100v-100h-300v100h100v100h100v100h100v100h100v200h-200
v100h-100v200z" />
    <glyph glyph-name="thorn" unicode="&#xfe;" 
d="M200 1000h200v-400h100v100h500v-100h100v-400h-100v-100h-500v100h-100v-400h-200v1200zM500 500v-200h400v200h-400z" />
    <glyph glyph-name="ydieresis" unicode="&#xff;" 
d="M300 1000h200v-200h-200v200zM800 1000h200v-200h-200v200zM200 700h200v-100h100v-100h100v-100h100v100h100v100h100v100h200v-200h-100v-100h-100v-100h-100v-100h-100v-100h-100v-100h-100v-100h-100v-100h-300v100h100v100h100v100h100v100h100v200h-200v100h-100
v200z" />
    <glyph glyph-name="Aogonek" unicode="&#x104;" 
d="M500 800v-100h-100v-100h-100v-100h600v100h-100v100h-100v100h-200zM400 1000h400v-100h100v-100h100v-100h100v-700h-100v-100h166v-100h-366v300h100v200h-600v-300h-200v700h100v100h100v100h100v100z" />
    <glyph glyph-name="aogonek" unicode="&#x105;" 
d="M100 700h800v-100h100v-400h100v-200h-200v-100h300v-100h-500v200h-500v100h-100v200h100v100h600v100h-700v200zM300 300v-100h500v100h-500z" />
    <glyph glyph-name="Cacute" unicode="&#x106;" 
d="M600 1200h300v-100h-100v-100h-300v100h100v100zM400 900h600v-100h100v-200h-200v100h-400v-100h-100v-300h100v-100h400v100h200v-200h-100v-100h-600v100h-100v100h-100v500h100v100h100v100z" />
    <glyph glyph-name="cacute" unicode="&#x107;" 
d="M800 1100h200v-100h-100v-100h-100v-100h-200v100h100v100h100v100zM400 700h699v-200h-599v-300h599v-200h-699v100h-100v100h-100v300h100v100h100v100z" />
    <glyph glyph-name="Ccaron" unicode="&#x10c;" 
d="M400 1200h200v-100h100v100h200v-100h-100v-100h-100v-100h300v-100h100v-200h-200v100h-400v-100h-100v-300h100v-100h400v100h200v-200h-100v-100h-600v100h-100v100h-100v500h100v100h100v100h200v100h-100v100h-100v100z" />
    <glyph glyph-name="ccaron" unicode="&#x10d;" 
d="M400 700h600v-200h100v-100h-200v100h-400v-300h400v100h200v-100h-100v-200h-600v100h-100v100h-100v300h100v100h100v100zM400 1100h200v-100h100v100h200v-100h-100v-100h-100v-100h-100v100h-100v100h-100v100z" />
    <glyph glyph-name="Dcaron" unicode="&#x10e;" 
d="M400 700v-500h400v100h100v300h-100v100h-400zM400 1200h200v-100h100v100h200v-100h-100v-100h-100v-100h200v-100h100v-100h100v-500h-100v-100h-100v-100h-700v900h400v100h-100v100h-100v100z" />
    <glyph glyph-name="dcaron" unicode="&#x10f;" 
d="M900 1000h300v-300h-100v-100h-200v100h100v200h-100v100zM600 1000h200v-1000h-600v100h-100v500h100v100h300v-200h-200v-300h300v100h-100v200h100v500z" />
    <glyph glyph-name="Eogonek" unicode="&#x118;" 
d="M200 1000h900v-200h-700v-200h500v-200h-500v-200h700v-200h-400v-100h200v-100h-400v200h-300v1000z" />
    <glyph glyph-name="eogonek" unicode="&#x119;" 
d="M300 700h700v-100h100v-300h-700v-100h600v-200h-300v-100h200v-100h-400v200h-200v100h-100v500h100v100zM400 500v-100h500v100h-500z" />
    <glyph glyph-name="Ecaron" unicode="&#x11a;" 
d="M400 1200h200v-100h100v100h200v-100h-100v-100h-100v-100h400v-200h-700v-200h500v-100h-500v-200h700v-200h-900v900h400v100h-100v100h-100v100z" />
    <glyph glyph-name="ecaron" unicode="&#x11b;" 
d="M400 1100h200v-100h100v100h200v-100h-100v-100h-100v-100h-100v100h-100v100h-100v100zM300 700h700v-100h100v-300h-700v-100h100v-100h300v100h200v-200h-700v100h-100v500h100v100zM500 600v-100h-100v-100h500v100h-100v100h-300z" />
    <glyph glyph-name="dotlessi" unicode="&#x131;" 
d="M400 700h300v-500h200v-200h-600v200h200v300h-100v200z" />
    <glyph glyph-name="Lslash" unicode="&#x141;" 
d="M200 1000h200v-400h100v100h100v100h200v-100h-100v-100h-100v-100h-200v-300h700v-200h-900v300h-100v-100h-100v200h100v100h100v500z" />
    <glyph glyph-name="lslash" unicode="&#x142;" 
d="M300 900h400v-300h100v100h100v100h100v-200h-100v-100h-200v-300h300v-200h-800v200h300v200h-100v-100h-200v100h100v100h200v200h-200v200z" />
    <glyph glyph-name="Nacute" unicode="&#x143;" 
d="M100 1000h300v-100h100v-100h100v-100h100v-200h100v-200h100v700h200v-1000h-300v100h-100v200h-100v100h-100v200h-100v100h-100v-700h-200v1000zM700 1200h200v-100h-100v-100h-100v-100h-200v100h100v100h100v100z" />
    <glyph glyph-name="nacute" unicode="&#x144;" 
d="M200 700h200v-100h100v100h500v-100h100v-600h-200v500h-400v-100h-100v-400h-200v700zM700 1100h200v-100h-100v-100h-100v-100h-200v100h100v100h100v100z" />
    <glyph glyph-name="Ncaron" unicode="&#x147;" 
d="M100 1000h300v-100h100v-100h100v-100h100v-200h100v-200h100v700h200v-1000h-300v100h-100v200h-100v100h-100v200h-100v100h-100v-700h-200v1000zM300 1200h200v-100h200v100h200v-100h-100v-100h-100v-100h-200v100h-100v100h-100v100z" />
    <glyph glyph-name="ncaron" unicode="&#x148;" 
d="M400 1100h200v-100h100v100h200v-100h-100v-100h-100v-100h-100v100h-100v100h-100v100zM200 700h200v-100h100v100h500v-100h100v-600h-200v500h-400v-100h-100v-400h-200v700z" />
    <glyph glyph-name="OE" unicode="&#x152;" 
d="M100 1000h1100v-200h-500v-200h300v-200h-300v-200h500v-200h-1100v100h-100v800h100v100zM200 800v-600h300v600h-300z" />
    <glyph glyph-name="oe" unicode="&#x153;" 
d="M100 700h1000v-100h100v-300h-500v-200h200v100h200v-200h-1000v100h-100v500h100v100zM700 600v-200h300v100h-100v100h-200zM300 600v-100h-100v-300h100v-100h200v500h-200z" />
    <glyph glyph-name="Rcaron" unicode="&#x158;" 
d="M400 700v-200h500v200h-500zM400 1200h200v-100h100v100h200v-100h-100v-100h-100v-100h300v-100h100v-400h-100v-100h-100v-100h200v-200h-300v100h-100v100h-100v100h-200v-300h-200v900h400v100h-100v100h-100v100z" />
    <glyph glyph-name="rcaron" unicode="&#x159;" 
d="M400 1100h200v-100h100v100h200v-100h-100v-100h-100v-100h-100v100h-100v100h-100v100zM200 700h200v-200h100v100h100v100h400v-200h-400v-200h-200v-300h-200v700z" />
    <glyph glyph-name="Sacute" unicode="&#x15a;" 
d="M600 1200h200v-100h-100v-100h300v-200h-600v-200h600v-100h100v-400h-100v-100h-700v200h600v200h-600v100h-100v400h100v100h200v100h100v100z" />
    <glyph glyph-name="sacute" unicode="&#x15b;" 
d="M700 1100h200v-100h-100v-100h-100v-100h-200v100h100v100h100v100zM300 700h700v-200h-600v-100h600v-100h100v-200h-100v-100h-700v200h600v100h-600v100h-100v200h100v100z" />
    <glyph glyph-name="Scaron" unicode="&#x160;" 
d="M400 1200h200v-100h100v100h200v-100h-100v-100h-100v-100h300v-200h-600v-100h600v-100h100v-400h-100v-100h-700v200h600v200h-600v100h-100v300h100v100h300v100h-100v100h-100v100z" />
    <glyph glyph-name="scaron" unicode="&#x161;" 
d="M400 1100h200v-100h100v100h200v-100h-100v-100h-100v-100h-100v100h-100v100h-100v100zM300 700h700v-200h-300v100h-200v-100h-100v-100h600v-100h100v-200h-100v-100h-700v200h300v-100h200v100h100v100h-600v100h-100v200h100v100z" />
    <glyph glyph-name="Tcaron" unicode="&#x164;" 
d="M300 1200h200v-100h200v100h200v-100h-100v-100h-100v-100h400v-200h-400v-700h-200v700h-400v200h400v100h-100v100h-100v100z" />
    <glyph glyph-name="tcaron" unicode="&#x165;" 
d="M900 1000h300v-300h-100v-100h-200v100h100v200h-100v100zM300 900h200v-200h300v-200h-300v-300h500v-200h-600v100h-100v400h-200v200h200v200z" />
    <glyph glyph-name="Uring" unicode="&#x16e;" 
d="M500 1200h300v-100h100v-100h-100v-100h-300v100h-100v100h100v100zM600 1100v-100h100v100h-100zM200 900h200v-700h500v700h200v-800h-100v-100h-700v100h-100v800z" />
    <glyph glyph-name="uring" unicode="&#x16f;" 
d="M500 1120h300v-100h100v-100h-100v-100h-300v100h-100v100h100v100zM600 1020v-100h100v100h-100zM200 700h200v-500h400v100h100v400h200v-700h-200v100h-100v-100h-500v100h-100v600z" />
    <glyph glyph-name="Ydieresis" unicode="&#x178;" 
d="M200 1200h300v-200h-300v200zM700 1200h300v-200h-300v200zM100 900h200v-100h100v-100h100v-100h200v100h100v100h100v100h200v-200h-100v-100h-100v-100h-100v-100h-100v-400h-200v400h-100v100h-100v100h-100v100h-100v200z" />
    <glyph glyph-name="Zacute" unicode="&#x179;" 
d="M600 1200h200v-100h-100v-100h300v-200h-100v-100h-100v-100h-100v-200h-100v-200h400v-200h-800v200h100v100h100v200h100v200h100v100h-400v200h300v100h100v100z" />
    <glyph glyph-name="zacute" unicode="&#x17a;" 
d="M700 1100h200v-100h-100v-100h-100v-100h-200v100h100v100h100v100zM200 700h900v-100h-100v-100h-100v-100h-100v-100h-100v-100h400v-200h-900v100h100v100h100v100h100v100h100v100h-400v200z" />
    <glyph glyph-name="Zdotaccent" unicode="&#x17b;" 
d="M500 1200h200v-200h300v-200h-100v-100h-100v-100h-100v-200h-100v-200h400v-200h-800v200h100v100h100v200h100v200h100v100h-400v200h300v200z" />
    <glyph glyph-name="zdotaccent" unicode="&#x17c;" 
d="M500 1000h200v-200h-200v200zM200 700h900v-100h-100v-100h-100v-100h-100v-100h-100v-100h400v-200h-900v100h100v100h100v100h100v100h100v100h-400v200z" />
    <glyph glyph-name="Zcaron" unicode="&#x17d;" 
d="M300 1200h200v-100h200v100h200v-100h-100v-100h-100v-100h300v-200h-100v-100h-100v-100h-100v-200h-100v-100h400v-200h-800v200h100v100h100v100h100v200h100v100h-400v200h300v100h-100v100h-100v100z" />
    <glyph glyph-name="zcaron" unicode="&#x17e;" 
d="M400 1100h200v-100h100v100h200v-100h-100v-100h-100v-100h-100v100h-100v100h-100v100zM200 700h900v-100h-100v-100h-100v-100h-100v-100h-100v-100h400v-200h-900v100h100v100h100v100h100v100h100v100h-400v200z" />
    <glyph glyph-name="circumflex" unicode="&#x2c6;" 
d="M500 1000h200v-100h100v-100h100v-100h-200v100h-200v-100h-200v100h100v100h100v100z" />
    <glyph glyph-name="caron" unicode="&#x2c7;" 
d="M300 1000h200v-100h200v100h200v-100h-100v-100h-100v-100h-200v100h-100v100h-100v100z" />
    <glyph glyph-name="dotaccent" unicode="&#x2d9;" 
d="M500 1000h200v-200h-200v200z" />
    <glyph glyph-name="ring" unicode="&#x2da;" 
d="M400 1000h400v-100h100v-100h-100v-100h-400v100h-100v100h100v100zM500 900v-100h200v100h-200z" />
    <glyph glyph-name="ogonek" unicode="&#x2db;" 
d="M500 100h200v-100h200v-200h-400v300z" />
    <glyph glyph-name="tilde" unicode="&#x2dc;" 
d="M300 1000h300v-100h100v-100h100v100h100v100h100v-200h-100v-100h-300v100h-100v100h-100v-100h-100v-100h-100v200h100v100z" />
    <glyph glyph-name="endash" unicode="&#x2013;" 
d="M200 600h800v-200h-800v200z" />
    <glyph glyph-name="emdash" unicode="&#x2014;" 
d="M100 600h1000v-200h-1000v200z" />
    <glyph glyph-name="quoteleft" unicode="&#x2018;" 
d="M600 1000h200v-100h-100v-200h100v-100h-300v300h100v100z" />
    <glyph glyph-name="quoteright" unicode="&#x2019;" 
d="M500 1000h300v-300h-100v-100h-200v100h100v200h-100v100z" />
    <glyph glyph-name="quotesinglbase" unicode="&#x201a;" 
d="M500 300h300v-300h-100v-100h-200v100h100v200h-100v100z" />
    <glyph glyph-name="quotedblleft" unicode="&#x201c;" 
d="M800 1000h200v-100h-100v-200h100v-100h-300v300h100v100zM300 1000h200v-100h-100v-200h100v-100h-300v300h100v100z" />
    <glyph glyph-name="quotedblright" unicode="&#x201d;" 
d="M700 1000h300v-300h-100v-100h-200v100h100v200h-100v100zM200 1000h300v-300h-100v-100h-200v100h100v200h-100v100z" />
    <glyph glyph-name="quotedblbase" unicode="&#x201e;" 
d="M700 300h300v-300h-100v-100h-200v100h100v200h-100v100zM200 300h300v-300h-100v-100h-200v100h100v200h-100v100z" />
    <glyph glyph-name="dagger" unicode="&#x2020;" 
d="M500 1100h200v-200h300v-200h-300v-800h-200v800h-300v200h300v200z" />
    <glyph glyph-name="daggerdbl" unicode="&#x2021;" 
d="M500 1100h200v-200h300v-200h-300v-400h300v-200h-300v-200h-200v200h-300v200h300v400h-300v200h300v200z" />
    <glyph glyph-name="bullet" unicode="&#x2022;" 
d="M400 700h400v-400h-400v400z" />
    <glyph glyph-name="ellipsis" unicode="&#x2026;" 
d="M900 300h200v-300h-200v300zM100 300h200v-300h-200v300zM500 300h200v-300h-200v300z" />
    <glyph glyph-name="perthousand" unicode="&#x2030;" 
d="M100 1000h300v-100h100v-200h-100v-100h-300v100h-100v200h100v100zM200 900v-200h100v200h-100zM800 1000h200v-100h-100v-100h-100v-100h-100v-100h-100v-100h-100v-100h200v-100h100v100h300v-100h100v-200h-100v-100h-300v100h-100v-100h-300v100h-100v100h-100v-100
h-100v-100h-100v200h100v100h100v100h100v100h100v100h100v100h100v100h100v100h100v100zM500 300v-200h100v200h-100zM900 300v-200h100v200h-100z" />
    <glyph glyph-name="guilsinglleft" unicode="&#x2039;" 
d="M600 900h300v-100h-100v-100h-100v-100h-100v-200h100v-100h100v-100h100v-100h-300v100h-100v100h-100v100h-100v200h100v100h100v100h100v100z" />
    <glyph glyph-name="guilsinglright" unicode="&#x203a;" 
d="M300 900h300v-100h100v-100h100v-100h100v-200h-100v-100h-100v-100h-100v-100h-300v100h100v100h100v100h100v200h-100v100h-100v100h-100v100z" />
    <glyph glyph-name="Euro" unicode="&#x20ac;" 
d="M300 1000h700v-100h100v-200h-200v100h-500v-200h400v-100h-400v-100h300v-100h-300v-100h500v100h200v-200h-100v-100h-700v100h-100v200h-100v100h100v100h-100v100h100v300h100v100z" />
  </font>
</defs>
</svg>
